<?xml version="1.0" encoding="utf-8"?>
<!-- Generator: Adobe Illustrator 16.0.0, SVG Export Plug-In . SVG Version: 6.00 Build 0)  -->
<!DOCTYPE svg PUBLIC "-//W3C//DTD SVG 1.1//EN" "http://www.w3.org/Graphics/SVG/1.1/DTD/svg11.dtd">
<svg version="1.1" id="Layer_1" xmlns="http://www.w3.org/2000/svg" xmlns:xlink="http://www.w3.org/1999/xlink" x="0px" y="0px"
	 width="800px" height="800px" viewBox="0 0 800 800" enable-background="new 0 0 800 800" xml:space="preserve">
<g transform="translate(0.000000,472.000000) scale(0.100000,-0.100000)">
	<g>
		<path fill="#018FBF" d="M4405.058,1895.019c-76.982-16.606-140.391-51.328-186.68-102.148
			c-52.832-58.369-77.988-128.818-83.525-233.477l-3.018-59.375h-44.785c-43.271,0-45.791-0.498-59.873-14.59
			c-13.584-14.092-14.6-17.607-14.6-54.346c0-60.879,18.115-76.982,85.547-76.982h35.215l0.508-375.869
			c0-277.754,1.514-380.908,6.035-393.984c9.561-28.184,30.703-36.23,91.582-34.219c53.33,2.012,68.428,7.549,77.49,27.676
			c4.023,8.047,5.537,133.34,5.537,393.984v382.412l89.561,0.498c54.844,0,95.605,2.52,106.67,6.045
			c25.664,8.555,36.23,32.207,34.219,75.479c-1.504,29.18-4.023,35.723-15.596,47.803l-13.584,13.584l-99.629,2.51l-99.131,2.52
			l0.498,46.299c1.016,61.885,15.098,107.676,42.275,138.867c28.682,32.207,61.885,47.305,125.791,55.859
			c48.809,7.041,53.838,9.053,66.924,23.643c14.092,15.098,14.59,17.109,12.578,60.889c-1.504,43.779-2.012,45.786-18.115,59.873
			c-15.596,14.097-18.115,14.595-62.891,14.097C4458.896,1902.065,4423.173,1898.54,4405.058,1895.019z"/>
		<path fill="#018FBF" d="M5656.962,1877.905l-16.602-14.585v-558.027c0-526.318,0.498-559.531,9.561-593.75
			c28.174-110.186,107.676-167.051,233.467-167.549c39.756,0,42.773,1.006,56.855,14.59c14.102,14.59,14.6,16.094,14.6,65.41
			c0,61.895-7.051,72.959-49.316,81.016c-48.301,9.053-66.416,26.162-78.994,73.457c-6.543,25.156-7.549,102.646-7.549,551.982
			c0,567.588,1.006,542.934-27.676,556.016c-7.549,3.521-35.723,6.035-65.41,6.035
			C5674.57,1892.5,5672.558,1892.002,5656.962,1877.905z"/>
		<path fill="#018FBF" d="M1197.314,1691.728c-437.266-77.988-677.275-553.486-479.033-948.984
			c94.102-188.193,270.215-320.02,477.519-357.754c63.398-11.582,173.096-11.582,232.969,0
			c139.883,27.168,250.586,85.537,350.215,184.16c129.824,128.809,195.732,286.807,195.732,467.451
			c0,235.488-113.711,440.283-314.482,566.572C1527.392,1686.201,1354.307,1719.404,1197.314,1691.728z M1446.387,1552.861
			c151.455-22.646,244.541-101.65,275.234-232.471c8.047-34.717,9.053-63.906,9.053-243.037c0-223.408-2.51-254.102-27.666-312.979
			c-21.143-49.805-46.797-87.041-90.576-129.814c-61.895-61.387-150.449-104.16-242.031-116.23
			c-58.369-8.057-157.998-3.027-208.311,10.566c-175.107,46.797-278.76,156.992-267.187,284.297
			c13.086,141.895,116.23,227.93,314.99,261.65c23.652,4.023,96.104,13.076,161.016,20.127
			c186.172,21.133,211.836,28.174,237.5,64.404c27.168,37.734,26.67,121.768-1.006,177.617
			c-23.145,47.803-63.398,77.998-127.305,96.113c-42.773,12.07-164.541,14.59-215.361,4.521
			c-106.67-21.631-163.535-73.457-193.223-176.113c-7.041-25.156-16.602-49.307-20.625-54.336
			c-28.682-31.201-92.588-16.104-104.658,24.658c-5.039,16.104,5.527,68.428,22.637,112.207
			c28.184,72.451,86.543,133.34,163.027,169.063C1217.939,1552.861,1342.724,1568.965,1446.387,1552.861z"/>
		<path fill="#018FBF" d="M1615.957,1098.994c-7.549-11.572-46.299-31.201-76.484-38.75c-16.602-4.521-91.074-18.105-165.547-30.693
			c-149.951-25.156-200.762-37.236-249.072-58.867c-42.773-19.121-70.439-42.266-88.555-74.971
			c-13.594-24.658-15.098-31.709-15.098-72.461c0-37.236,2.012-48.809,11.572-66.416c60.879-114.229,244.043-160.518,394.99-99.629
			c102.646,41.26,169.072,117.744,187.188,216.367C1622.998,916.846,1624.004,1111.074,1615.957,1098.994z"/>
		<path fill="#018FBF" d="M2485.439,1528.203c-101.641-19.619-191.201-79.502-237.998-159.004l-13.584-22.646l-1.514,68.936
			l-1.504,68.936l-15.098,12.588c-14.092,12.07-19.121,13.076-65.918,13.076c-48.301,0-50.82-0.498-64.404-14.092
			c-9.561-9.561-15.098-21.631-17.617-36.729c-1.504-12.08-2.51-299.385-1.504-638.535c1.504-668.213,0-629.971,28.682-645.068
			c7.549-4.023,30.693-6.543,62.891-6.543c56.865,0,74.473,6.543,84.033,31.699c3.018,8.057,4.531,101.143,3.525,256.123
			c-1.016,133.838-1.016,243.027-0.508,243.027s9.063-12.578,19.121-27.676c42.773-64.404,123.281-118.74,201.777-136.357
			c60.381-13.086,150.947-8.047,213.34,12.08c68.438,22.637,105.674,46.289,161.025,101.641
			c73.457,73.457,114.717,157.998,133.838,274.229c10.566,66.416,7.051,196.738-7.549,259.639
			c-40.752,177.119-147.432,298.389-295.869,337.129C2619.795,1533.74,2532.744,1537.265,2485.439,1528.203z M2628.847,1353.603
			c89.561-42.773,144.414-124.287,164.033-244.551c9.561-57.354,7.051-129.316-5.537-187.686
			c-26.162-115.225-103.145-203.281-201.27-228.945c-36.729-9.561-97.109-9.561-131.328-0.498
			c-140.889,37.236-228.438,201.777-208.818,390.469c15.596,150.947,81.016,244.541,196.24,282.783
			c22.646,7.041,40.762,8.555,88.564,7.549C2588.594,1371.211,2593.125,1370.205,2628.847,1353.603z"/>
		<path fill="#018FBF" d="M3501.855,1528.203c-101.133-19.619-178.125-69.941-232.461-151.455l-19.121-29.189l-1.514,68.438
			l-1.504,68.428l-15.098,12.588c-14.092,12.07-19.121,13.076-65.918,13.076c-48.301,0-50.82-0.498-64.404-14.092
			c-9.57-9.561-15.098-21.631-17.617-36.729c-1.504-12.08-2.51-299.385-1.504-638.535c1.504-668.213,0-629.971,28.682-645.068
			c7.549-4.023,30.693-6.543,62.9-6.543c56.855,0,74.463,6.543,84.023,31.699c3.018,8.057,4.531,101.143,3.525,256.123
			c-1.006,133.838-0.508,243.027,1.006,243.027c1.504,0,9.561-11.572,17.607-25.654c22.646-38.75,77.49-87.061,125.293-110.205
			c115.732-57.363,273.223-44.775,386.943,29.697c92.08,60.879,153.974,153.467,188.691,281.777
			c11.572,44.277,12.578,57.354,13.086,151.455c0.498,113.213-5.039,152.461-32.705,228.438
			c-50.322,137.871-147.939,231.963-274.746,265.176C3636.211,1533.74,3549.16,1537.265,3501.855,1528.203z M3651.806,1350.078
			c73.467-36.23,124.287-104.16,149.941-200.264c15.098-54.844,16.104-167.559,3.027-225.928
			c-34.219-147.939-137.881-239.004-270.713-239.004c-144.922,0.498-250.586,115.225-271.719,295.361
			c-6.543,52.324-1.006,126.299,13.086,180.137c26.162,101.133,91.582,174.6,183.154,204.795c22.646,7.041,40.762,8.555,89.57,7.549
			C3608.535,1371.211,3609.541,1371.211,3651.806,1350.078z"/>
		<path fill="#018FBF" d="M4937.421,1527.197c-184.16-28.183-336.621-149.443-396.504-313.984
			c-69.941-190.703-27.676-395.498,110.195-533.867c78.994-79.004,179.629-129.316,291.846-145.42
			c56.348-8.555,161.514-3.525,214.854,9.561c182.656,45.283,321.523,179.629,370.342,357.754
			c10.059,37.744,11.572,53.848,11.572,133.35c-0.508,101.641-7.051,134.844-39.756,206.299
			c-36.23,77.988-100.127,154.473-167.559,200.771C5220.205,1517.637,5075.791,1548.838,4937.421,1527.197z M5122.089,1364.17
			c56.855-17.617,92.08-39.248,135.85-83.027c69.951-69.434,100.137-145.42,100.137-249.072
			c-0.508-98.115-30.186-177.119-91.582-242.529c-63.896-67.93-132.334-99.131-224.912-103.154
			c-65.42-3.018-107.178,5.029-161.025,31.201c-117.236,57.363-188.682,175.605-188.682,314.482
			c0,167.559,106.67,304.922,264.16,339.141C5002.832,1381.777,5075.292,1378.252,5122.089,1364.17z"/>
		<path fill="#018FBF" d="M6748.857,1527.695c-200.771-31.699-359.775-172.08-412.607-364.795
			c-10.068-37.246-11.572-53.848-11.572-130.83c0.498-104.658,8.555-143.906,47.803-223.916
			c62.393-128.311,179.131-222.402,324.551-262.656c46.289-13.086,57.363-14.092,140.889-14.092s94.59,1.006,140.381,14.092
			c182.148,50.312,310.967,175.605,360.781,350.215c32.207,112.705,20.625,248.066-30.693,355.742
			C7212.783,1451.211,6984.335,1563.926,6748.857,1527.695z M6925.976,1366.68c113.213-30.186,202.275-121.26,234.98-239.004
			c12.07-44.785,12.07-145.42-0.508-191.211c-33.203-124.287-126.797-215.859-248.564-244.541
			c-46.797-11.074-132.334-7.041-177.119,8.047c-146.426,49.316-239.512,192.217-229.951,352.227
			c6.035,92.08,33.711,159.004,92.08,220.391c51.328,54.844,112.715,88.564,185.176,101.641
			C6815.273,1380.273,6890.751,1376.24,6925.976,1366.68z"/>
		<path fill="#018FBF" d="M6071.074,1503.037c-26.162-14.59-25.156,1.514-25.156-470.967
			c-0.508-342.158,1.006-443.301,6.035-452.861c10.566-21.133,35.732-30.185,84.033-30.185s73.457,9.053,84.033,30.185
			c8.555,17.109,9.551,875.527,1.006,900.186c-8.555,24.658-26.162,30.693-86.045,30.693
			C6101.767,1509.59,6078.623,1507.568,6071.074,1503.037z"/>
		<path fill="#018FBF" d="M1295.937-49.756c-120.264-44.277-174.102-177.119-118.75-293.857
			c53.838-114.219,200.264-153.467,309.453-83.525c65.918,42.266,104.658,131.328,91.572,210.322
			c-12.08,71.953-63.398,138.379-125.293,162.529C1410.654-38.184,1333.672-35.674,1295.937-49.756z M1430.283-118.193
			c49.814-24.648,79.502-78.496,74.971-137.871c-5.537-81.006-54.844-134.346-129.316-139.883
			c-148.438-10.566-203.789,210.83-69.434,277.754C1343.232-99.58,1393.555-99.58,1430.283-118.193z"/>
		<path fill="#018FBF" d="M6591.357-46.738c-96.611-30.693-154.473-117.246-146.924-219.893
			c4.023-47.295,18.613-87.549,43.779-119.756c62.393-78.994,177.617-99.629,257.119-45.791l22.139,14.6l1.514-19.629l1.504-20.127
			h30.195h29.688v108.184v108.184h-65.41h-65.42v-30.186v-30.195h32.705h32.715v-27.178c0-25.156-1.016-27.666-18.623-39.746
			c-27.168-19.121-58.877-28.682-92.08-28.682c-58.369,0-115.732,44.785-131.328,102.148c-8.555,31.191-3.525,92.588,9.561,117.236
			c13.584,26.67,50.313,58.877,75.479,66.426c44.277,13.584,114.219,4.023,147.93-19.629c7.041-5.537,14.092-9.561,15.596-9.561
			c1.514,0,10.068,11.572,19.121,25.664c16.104,25.156,16.104,26.162,6.543,33.213c-17.607,13.076-49.307,28.174-74.971,34.717
			C6690.986-38.184,6618.027-38.184,6591.357-46.738z"/>
		<path fill="#018FBF" d="M228.691-250.527v-206.807h37.744h37.734v72.461v72.451l64.404,1.514
			c61.895,2.012,65.918,2.52,89.57,17.109c82.52,51.328,79.502,190.195-5.537,233.975c-23.652,12.08-29.18,12.578-124.287,14.092
			l-99.629,2.012V-250.527z M407.324-112.158c50.82-21.123,50.82-110.693,0-131.826c-10.566-4.023-34.219-7.041-60.381-7.041H304.17
			v72.959v72.959h42.773C373.105-105.107,396.758-108.125,407.324-112.158z"/>
		<path fill="#018FBF" d="M696.65-251.025v-206.309h35.225H767.1v77.998v78.486l38.74-1.504l38.74-1.514l40.762-76.475
			l40.254-76.992h39.248c21.133,0,38.74,1.006,38.74,2.52c0,1.504-21.631,41.26-48.301,89.063
			c-30.693,54.844-46.289,87.549-42.266,88.555c13.086,4.531,41.26,33.711,51.328,53.34c24.15,46.289,9.551,122.275-29.189,151.953
			c-29.18,22.148-55.85,27.178-151.455,27.178H696.65V-251.025z M863.203-110.137c27.676-7.549,36.729-20.635,38.74-56.865
			c1.514-26.66,0.508-33.213-9.561-45.791c-16.094-20.625-38.74-28.174-85.029-28.174H767.1v67.93v67.93h39.238
			C827.48-105.107,853.135-107.627,863.203-110.137z"/>
		<path fill="#018FBF" d="M1768.418-251.025v-206.309h35.225h35.215v72.959v72.969h59.375c51.328,0,62.392,1.504,84.531,12.07
			c79.004,36.738,98.125,153.975,34.727,216.875c-32.207,32.705-53.838,37.734-159.512,37.734h-89.561V-251.025z M1941.513-112.158
			c46.289-19.121,56.348-85.029,18.105-121.26c-15.088-14.59-18.105-15.098-68.428-16.602l-52.334-2.021v73.467v73.467h42.773
			C1906.787-105.107,1931.445-108.125,1941.513-112.158z"/>
		<path fill="#018FBF" d="M2231.338-251.025v-206.309h128.311h128.311v30.195v30.186l-91.582,1.006l-92.08,1.514l-1.504,56.855
			l-1.514,56.357h70.947h70.449v30.195v29.688l-68.936,1.504l-69.443,1.514l-1.504,56.855l-1.514,56.357h88.555h88.057v30.186
			v30.195h-123.271h-123.281V-251.025z"/>
		<path fill="#018FBF" d="M2674.131-250.527v-206.807h35.225h35.225v77.998v77.988h39.248h38.74l40.254-76.982l40.254-76.484
			l39.248-1.514c21.133-1.006,38.75,0,38.75,1.514c0,1.504-21.133,40.752-46.299,87.051c-55.352,99.121-51.826,91.572-42.764,91.572
			c10.566,0,40.752,31.201,51.826,53.34c7.041,14.092,9.561,30.186,9.561,57.861c-0.508,33.711-2.021,41.26-15.596,62.9
			c-9.063,15.098-24.16,30.186-39.258,39.756l-24.648,15.088l-100.137,1.514l-99.629,2.012V-250.527z M2841.191-110.137
			c27.168-7.549,39.248-25.664,39.248-58.877c0-53.33-25.166-71.953-95.605-71.953h-40.254v67.93v67.93h39.248
			C2804.961-105.107,2831.123-107.627,2841.191-110.137z"/>
		<path fill="#018FBF" d="M3111.894-74.922v-29.688l69.443-1.504l68.936-1.514l1.504-174.6l1.006-175.107h35.225h35.225v176.113
			v176.113h67.93h67.93v30.186v30.195h-173.604h-173.594V-74.922z"/>
		<path fill="#018FBF" d="M3598.974-60.83c5.537-9.053,36.221-62.9,68.428-119.258l58.369-102.139v-87.549v-87.559h35.225h35.225
			v86.045v85.537l67.92,118.252c37.246,64.912,67.93,119.248,67.93,120.254c0,1.514-17.607,2.52-39.238,2.52h-39.248l-45.791-88.555
			l-45.791-89.062l-28.682,57.354c-15.596,31.709-36.729,71.455-46.299,89.062l-17.607,31.201h-40.254h-40.254L3598.974-60.83z"/>
		<path fill="#018FBF" d="M4367.822-55.801c-1.504-6.533-8.545-86.035-15.596-177.617c-7.051-91.074-14.092-179.131-16.104-195.234
			l-3.018-28.682h36.23c19.619,0,35.723,1.514,36.221,4.023c0,2.021,5.039,68.936,11.074,149.443l11.074,145.928l16.602-45.293
			c9.053-24.648,29.688-75.977,45.283-113.213l28.682-67.93l30.693-1.504l30.693-1.514l31.699,74.473
			c17.617,40.752,37.744,90.576,44.785,110.703c7.549,20.127,14.59,37.734,16.104,39.238c1.514,1.514,4.531-29.688,6.035-68.936
			c1.514-39.746,6.045-106.67,9.063-148.428l6.035-76.992h34.717c34.219,0,34.219,0,34.219,14.092
			c0,8.057-6.543,97.109-15.098,198.75c-8.047,101.65-15.088,188.193-15.088,192.217c0,6.035-8.057,7.549-39.248,7.549h-39.756
			l-45.791-117.744c-25.664-64.912-46.289-119.248-46.289-120.762c0-1.006-2.52-8.555-5.537-16.602
			c-5.029-13.086-6.543-9.561-31.699,56.348c-14.59,38.75-38.242,98.623-52.324,133.35l-25.166,62.891l-38.242,1.514
			C4371.855-44.229,4369.833-44.727,4367.822-55.801z"/>
		<path fill="#018FBF" d="M5059.189-45.732c0-1.006-32.705-94.102-71.953-206.807l-72.461-204.795h36.729h36.23l17.109,51.826
			l17.617,51.328l75.469,1.504l75.479,1.514l16.611-53.34l16.602-52.832h37.236c20.127,0,36.729,1.514,36.23,4.023
			c0,2.021-32.207,94.102-71.455,204.795l-71.455,201.27l-39.248,1.514C5076.796-44.727,5059.189-45.225,5059.189-45.732z
			 M5104.472-128.252c0-6.035,38.242-128.818,48.809-156.494c2.012-5.029-10.566-6.533-53.34-6.533
			c-30.693,0-55.85,2.012-55.85,4.023s7.549,26.66,16.602,54.336c9.57,27.178,21.143,64.912,26.172,83.535
			c5.029,18.613,11.064,32.705,13.076,31.191C5102.46-119.697,5104.472-124.229,5104.472-128.252z"/>
		<path fill="#018FBF" d="M5446.63-251.025v-206.309h35.723h35.732l-2.012,150.957c-0.508,83.027-1.006,150.947-0.508,150.947
			c0,0,7.549-12.578,16.611-28.174c8.555-15.596,52.334-83.525,96.611-150.947l80.508-122.783h34.717h34.717v206.309v206.299
			h-35.723h-35.732l2.021-150.957c0.498-83.018,1.006-150.947,0.498-150.947c0,0-8.555,14.082-18.115,31.699
			c-9.561,17.109-52.832,85.039-96.104,150.947L5517.08-44.727h-35.225h-35.225V-251.025z"/>
		<path fill="#018FBF" d="M6018.242-244.99c-38.74-109.687-70.947-202.783-72.461-206.299c-1.504-5.039,6.045-6.045,34.219-5.039
			l36.729,1.514l17.617,51.826l17.109,51.826l75.977-1.514l75.479-1.504l17.607-51.328l17.109-51.826h34.717
			c19.121,0,34.727,1.514,34.727,4.023c0,2.021-31.699,94.6-70.947,206.309l-71.455,202.275h-38.242h-38.242L6018.242-244.99z
			 M6159.13-216.309c12.08-37.734,22.139-69.941,22.139-71.455c0-2.012-25.156-3.516-55.85-3.516
			c-47.295,0-55.352,1.006-52.832,7.539c1.504,4.033,13.076,40.762,26.162,81.523c12.578,41.26,24.16,77.988,25.664,82.012
			c2.012,5.029,4.521,1.006,8.047-10.059C6134.98-139.834,6147.06-178.574,6159.13-216.309z"/>
		<path fill="#018FBF" d="M7021.572-251.025v-206.309h125.801h125.791v30.195v30.186l-89.063,1.006l-89.57,1.514l-1.504,56.855
			l-1.504,56.357h70.938h70.449v30.195v29.688l-68.936,1.504l-69.443,1.514l-1.504,56.855l-1.504,56.357h88.555h88.057v30.186
			v30.195h-123.281h-123.281V-251.025z"/>
		<path fill="#018FBF" d="M7464.375-251.025v-206.309h35.215h35.225v77.998v78.486l38.75-1.504l38.74-1.514l40.762-76.475
			l40.253-76.992h39.238c21.143,0,38.75,1.006,38.75,2.52c0,1.504-21.641,41.26-48.301,89.063
			c-29.688,53.33-45.791,87.549-42.266,88.555c12.578,4.531,41.26,33.711,50.313,51.328c24.15,47.295,15.596,110.195-20.127,145.918
			c-29.688,29.687-55.351,35.225-159.511,35.225h-87.041V-251.025z M7630.917-111.143c28.682-8.057,36.738-19.629,38.75-55.859
			c1.504-26.66,0.508-33.213-9.561-45.791c-16.104-20.625-38.74-28.174-85.039-28.174h-40.254v67.93v67.93h38.242
			C7594.189-105.107,7620.351-107.627,7630.917-111.143z"/>
	</g>
</g>
</svg>
